<?xml version="1.0" encoding="UTF-8" standalone="no"?>
<svg
   xmlns:dc="http://purl.org/dc/elements/1.1/"
   xmlns:cc="http://creativecommons.org/ns#"
   xmlns:rdf="http://www.w3.org/1999/02/22-rdf-syntax-ns#"
   xmlns:svg="http://www.w3.org/2000/svg"
   xmlns="http://www.w3.org/2000/svg"
   width="772"
   height="264"
   viewBox="0 0 204.25833 69.850001"
   version="1.1"
   id="svg8">
  <style
     id="style833"></style>
  <defs
     id="defs2">&gt;
    </defs>
  <metadata
     id="metadata5">
    <rdf:RDF>
      <cc:Work
         rdf:about="">
        <dc:format>image/svg+xml</dc:format>
        <dc:type
           rdf:resource="http://purl.org/dc/dcmitype/StillImage" />
        <dc:title></dc:title>
      </cc:Work>
    </rdf:RDF>
  </metadata>
  <g
     transform="translate(-0.41615003,-0.34619645)"
     aria-label="Maiα"
     id="maia-logo-svg"
     style="fill:#FFFFFF;fill-opacity:1;stroke:none;stroke-width:1.99777">
    <path
       d="m 169.92533,66.780183 q -5.75356,0 -10.5482,-2.796871 -4.79463,-2.796871 -7.75133,-7.751328 -2.87678,-5.034368 -2.87678,-11.587037 0,-6.073205 2.63705,-11.107573 2.63705,-5.034368 7.43169,-8.07097 4.79463,-3.036603 11.26739,-3.036603 8.71026,0 13.82454,4.874546 5.11427,4.874547 7.5915,14.383908 l -5.51383,3.436156 q -2.07767,-6.552669 -4.5549,-9.829004 -2.47723,-3.356245 -5.35401,-4.554904 -2.79687,-1.198659 -6.07321,-1.198659 -3.99553,0 -7.03213,2.077676 -3.0366,1.997765 -4.71473,5.43392 -1.67812,3.356246 -1.67812,7.511597 0,4.235261 1.83794,7.671417 1.83795,3.436156 4.87455,5.433921 3.11651,1.917854 6.7924,1.917854 3.59598,0 6.23303,-1.598212 2.71696,-1.598212 4.79463,-4.395083 2.07768,-2.796871 3.7558,-6.392848 1.67813,-3.595976 3.19643,-7.511596 l 2.95669,9.029898 q -1.91786,3.755798 -3.83571,7.032133 -1.83794,3.276334 -4.15535,5.753563 -2.2375,2.477228 -5.43392,3.915619 -3.11651,1.35848 -7.67142,1.35848 z m 27.24952,0.07991 q -2.9567,0 -3.99553,-2.796871 l -7.43169,-19.897739 5.67365,-4.474994 9.18972,21.975415 q 0.15982,0.239732 0.15982,0.639285 0.0799,0.399553 0.0799,0.559374 0,1.758033 -0.95892,2.876781 -0.95893,1.118749 -2.71696,1.118749 z m -6.95223,-17.020958 -4.63481,-7.511596 7.03213,-16.861136 q 0.55938,-1.358481 1.5183,-1.997765 0.95893,-0.719196 2.47723,-0.639285 1.75803,0.07991 2.87678,1.198659 1.11875,1.118748 0.95893,2.876781 0,0.159822 -0.0799,0.559375 -0.0799,0.399553 -0.23973,0.639284 z m -55.9074,16.621406 q -1.75803,0 -2.95669,-1.118749 -1.11875,-1.198659 -1.11875,-2.956692 V 26.824884 q 0,-1.837944 1.11875,-2.956692 1.19866,-1.118749 2.95669,-1.118749 1.83794,0 2.95669,1.118749 1.11875,1.118748 1.11875,2.956692 V 62.3851 q 0,1.758033 -1.11875,2.956692 -1.11875,1.118749 -2.95669,1.118749 z m 0,-50.823141 q -2.15759,0 -3.7558,-1.518301 -1.5183,-1.598212 -1.5183,-3.755799 0,-2.1575857 1.5183,-3.6758871 1.59821,-1.598212 3.7558,-1.598212 2.15759,0 3.67589,1.598212 1.59821,1.5183014 1.59821,3.6758871 0,2.157587 -1.59821,3.755799 -1.5183,1.518301 -3.67589,1.518301 z M 96.304036,66.780183 q -5.833474,0 -10.468288,-2.876781 -4.634815,-2.956693 -7.351776,-7.91115 -2.637049,-5.034367 -2.637049,-11.347305 0,-6.312937 2.876781,-11.347305 2.956692,-5.034367 7.91115,-7.911149 5.034367,-2.956692 11.267394,-2.956692 6.233022,0 11.187482,2.956692 4.95446,2.876782 7.83124,7.911149 2.95669,5.034368 2.95669,11.347305 h -3.11651 q 0,6.312938 -2.71696,11.347305 -2.63705,4.954457 -7.27187,7.91115 -4.63481,2.876781 -10.468284,2.876781 z m 1.598212,-7.191954 q 4.075442,0 7.271862,-1.917854 3.19643,-1.997765 5.03437,-5.35401 1.83794,-3.436156 1.83794,-7.671418 0,-4.315172 -1.83794,-7.671417 -1.83794,-3.436156 -5.03437,-5.35401 -3.19642,-1.997765 -7.271862,-1.997765 -3.99553,0 -7.271865,1.997765 -3.196423,1.917854 -5.114278,5.35401 -1.837944,3.356245 -1.837944,7.671417 0,4.235262 1.837944,7.671418 1.917855,3.356245 5.114278,5.35401 3.276335,1.917854 7.271865,1.917854 z m 17.899972,6.952222 q -1.75803,0 -2.95669,-1.118748 -1.11875,-1.198659 -1.11875,-2.956692 V 50.238689 l 1.5183,-8.470523 6.63258,2.876781 v 17.820064 q 0,1.758033 -1.19866,2.956692 -1.11874,1.118748 -2.87678,1.118748 z M 7.1787844,66.460541 q -1.7580331,0 -2.9566921,-1.198659 -1.198659,-1.198659 -1.198659,-2.956692 V 8.2057143 q 0,-1.8379438 1.198659,-2.9566922 1.198659,-1.198659 2.9566921,-1.198659 2.397318,0 3.6758876,2.2374968 L 35.866689,56.391805 H 33.30955 L 57.682283,6.2878599 q 1.278569,-2.2374968 3.675887,-2.2374968 1.758034,0 2.956693,1.198659 1.198659,1.1187484 1.198659,2.9566922 V 62.30519 q 0,1.758033 -1.27857,2.956692 -1.198659,1.198659 -2.876782,1.198659 -1.758033,0 -2.956692,-1.198659 -1.198659,-1.198659 -1.198659,-2.956692 V 19.71284 l 1.598212,-0.399552 -20.936577,42.672259 q -1.35848,2.077676 -3.595977,2.077676 -2.637049,0 -3.835708,-2.477229 L 9.7359236,20.112393 11.334136,19.71284 v 42.59235 q 0,1.758033 -1.198659,2.956692 -1.1986594,1.198659 -2.9566926,1.198659 z"
       id="path877" />
  </g>
</svg>
